<?xml version="1.0" encoding="utf-8"?>
<!-- Generator: Adobe Illustrator 25.0.0, SVG Export Plug-In . SVG Version: 6.00 Build 0)  -->
<svg version="1.1" id="Layer_1" xmlns="http://www.w3.org/2000/svg" xmlns:xlink="http://www.w3.org/1999/xlink" x="0px" y="0px"
	 viewBox="0 0 500 500" style="enable-background:new 0 0 500 500;" xml:space="preserve">
<style type="text/css">
	.st0{fill:#C899A1;}
	.st1{fill:#FFFFFF;}
</style>
<g>
	<g>
		<circle class="st0" cx="250" cy="250" r="222.66"/>
	</g>
	<g>
		<g>
			<path class="st1" d="M389.67,305.75c-0.01-4.8-2.49-7.26-7.36-7.32c-4.05-0.05-8.1,0-12.15-0.02c-0.29,0-0.59-0.04-0.91-0.09
				h-95.46c-0.61,0.05-1.19,0.09-1.77,0.1c-9.8,0.01-19.6,0.01-29.41,0c-0.51,0-1-0.03-1.47-0.1H142.8c0,0.03,0.01,0.07,0.01,0.1
				c-3.34,0-6.27,0.15-9.18-0.03c-3.9-0.24-6.87,0.99-8.7,4.56v34.13c1.82,3.56,4.78,4.86,8.68,4.59c2.37-0.16,4.76-0.03,7.36-0.03
				c0,2.71-0.04,5.1,0.01,7.5c0.09,3.87,1.51,7.2,4.18,10c3.32,3.47,7.48,4.67,12.16,4.67c66.69-0.02,133.38-0.01,200.06-0.02
				c0.95,0,1.9-0.06,2.83-0.17c7.79-0.93,13.26-7,13.41-14.87c0.04-2.3,0.01-4.6,0.01-6.7c0.37-0.23,0.44-0.32,0.51-0.32
				c2.84-0.03,5.68-0.03,8.52-0.11c4.5-0.13,6.98-2.66,6.99-7.18C389.69,324.87,389.69,315.31,389.67,305.75z M381.8,333.87H268.61
				c-4.07,0-5.84,1.13-5.89,3.75c-0.06,2.7,1.89,4.01,6,4.01h97.09c0,2.87,0.19,5.53-0.06,8.14c-0.29,3.17-2.7,5.49-5.86,6.02
				c-1.1,0.19-2.23,0.22-3.34,0.22c-66.17,0.01-132.34,0.01-198.52,0.01c-5.88,0-9.05-2.38-9.28-7.03
				c-0.09-1.87-0.05-3.73-0.03-5.81c0.01-0.5,0.01-1.02,0.01-1.55h22.79c25.23,0,50.45,0,75.67-0.01c1.11,0,2.27,0.02,3.32-0.26
				c2.02-0.55,2.96-2.02,2.74-4.1c-0.21-1.96-1.39-3.1-3.35-3.32c-0.94-0.1-1.9-0.06-2.85-0.06H132.9v-27.53h248.9V333.87z"/>
		</g>
		<g>
			<g>
				<path class="st1" d="M273.22,289.71c-8.86,0-17.81-0.02-26.67-0.1c-2.43-0.02-4.7-0.53-6.9-1.03c-0.78-0.17-1.57-0.35-2.35-0.5
					c-0.68-0.13-1.36-0.31-2.04-0.51c-0.8-0.23-1.56-0.44-2.1-0.44c0,0-0.01,0-0.01,0c-18.9,0.09-37.79,0.24-56.69,0.38l-22.97,0.16
					c-1.62,0.01-3.54-0.01-5.53-0.31c-1.36-0.2-2.68-0.59-3.92-1.15c-6.68-3.02-10.3-10.65-8.42-17.75
					c0.19-0.72,0.42-1.42,0.69-2.09c2.43-5.97,7.93-9.42,15.1-9.49c6.47-0.06,12.94-0.11,19.41-0.17l3.75-0.03
					c10.84-0.09,21.69-0.18,32.53-0.27l16.98-0.14c0.78-4.67,3.02-8.92,6.46-12.19c4.47-4.24,10.57-6.45,17.08-6.29
					c9.45,0.27,19.1,0.23,28.44,0.19c6.96-0.03,14.16-0.06,21.26,0.04c4.14,0.06,8.19,1.02,11.4,2.69
					c9.96,5.18,15.41,18.73,12.14,30.21l0,0c-3.48,12.26-11.96,18.74-24.54,18.75l-8.39,0.01
					C283.08,289.71,278.16,289.71,273.22,289.71z M233.16,280.44c1.46,0,2.77,0.37,3.92,0.69c0.49,0.14,0.98,0.28,1.47,0.37
					c0.86,0.16,1.72,0.36,2.58,0.55c1.95,0.44,3.78,0.85,5.5,0.86c13.77,0.12,27.78,0.1,41.32,0.09l8.4-0.01
					c9.53,0,15.45-4.54,18.09-13.87l0,0c2.4-8.43-1.62-18.71-8.79-22.43c-2.28-1.18-5.34-1.89-8.4-1.93
					c-7.03-0.1-14.2-0.07-21.14-0.04c-9.39,0.04-19.09,0.08-28.66-0.19c-4.76-0.15-9.11,1.44-12.27,4.44
					c-2.92,2.78-4.59,6.59-4.68,10.73l-0.07,3.24l-23.25,0.2c-10.84,0.09-21.69,0.17-32.53,0.27l-3.75,0.03
					c-6.47,0.05-12.93,0.11-19.4,0.17c-4.52,0.04-7.53,1.82-8.94,5.29c-0.16,0.41-0.31,0.85-0.43,1.31
					c-1.05,3.97,0.97,8.23,4.7,9.92c0.68,0.31,1.41,0.52,2.15,0.63c1.52,0.23,3.13,0.24,4.49,0.23l22.96-0.16
					c18.9-0.14,37.81-0.29,56.71-0.38C233.13,280.44,233.14,280.44,233.16,280.44z"/>
			</g>
			<g>
				<path class="st1" d="M353.28,290.86c-3.93,0-7.54-0.03-10.99-0.08c-4.08-0.06-7.74-2.08-9.81-5.39
					c-1.97-3.16-2.18-7.09-0.57-10.51c0.13-0.27,0.26-0.52,0.41-0.77c-3.58-1.78-6.56-3.68-9.05-5.75
					c-7.39-6.16-10.35-13.93-9.04-23.76c0.09-0.64,0.2-1.27,0.32-1.9c2.38-11.38,11.86-20.36,23.06-21.86
					c13.01-1.73,25.02,5.04,29.88,16.88c2.88,7.03,2.9,14.18,0.04,21.24c-1.41,3.48-3.46,6.55-6.18,9.24
					c1.44-0.01,2.91-0.01,4.4,0.06c6.49,0.34,11.43,5.43,11.25,11.58l0,0c-0.17,6.07-5.23,10.87-11.53,10.94
					C361.04,290.84,357.02,290.86,353.28,290.86z M340.81,273.82l-0.65,0.91c-0.3,0.41-0.61,0.82-0.93,1.22
					c-0.51,0.65-1,1.27-1.25,1.8c-0.88,1.87-0.26,3.37,0.19,4.09c0.87,1.39,2.4,2.2,4.22,2.23c6.68,0.1,13.99,0.11,23.01,0.01
					c2.68-0.03,4.83-1.97,4.89-4.42v0c0.07-2.48-2.08-4.54-4.9-4.69c-1.55-0.08-3.12-0.07-4.78-0.05c-0.71,0.01-1.43,0.02-2.15,0.02
					l-0.44,0c-2.25-0.01-4.58-0.01-7.06-0.23L340.81,273.82z M341.61,227.28c-1.02,0-2.06,0.07-3.1,0.21
					c-8.3,1.11-15.61,8.08-17.38,16.57c-0.09,0.46-0.18,0.95-0.25,1.44c-1,7.55,1.06,13.01,6.69,17.71
					c2.81,2.35,6.47,4.47,11.19,6.48l3.84,1.64l-0.98,1.37l8.08-4.3c5.91-3.15,9.61-6.95,11.64-11.95
					c2.17-5.38,2.16-10.83-0.03-16.18C357.99,232.24,350.31,227.28,341.61,227.28z"/>
			</g>
		</g>
		<g>
			<g>
				<path class="st1" d="M154.45,171.52c-0.94,0-1.89-0.05-2.84-0.16c-12.34-1.41-21.97-10.5-23.97-22.64
					c-2.4-14.53,7.49-28.41,22.04-30.94c0.01-0.01,0.1-0.05,0.19-0.08c0.16-0.06,0.32-0.12,0.49-0.18c0.34-0.11,0.7-0.17,1.06-0.17
					h5.82c0.27,0,0.53,0.03,0.79,0.1c4.17,1.02,8.55,2.36,12.39,5.26c9.91,7.49,13.53,20.24,9,31.74
					C175.4,164.69,165.19,171.52,154.45,171.52z M152.02,124.06c-0.32,0.12-0.72,0.25-1.19,0.33c-10.93,1.9-18.37,12.33-16.57,23.24
					c1.51,9.15,8.79,16.01,18.12,17.07c8.63,0.98,17.57-4.48,20.81-12.71c3.41-8.66,0.68-18.28-6.8-23.93
					c-2.62-1.98-5.72-3.05-9.55-4H152.02z"/>
			</g>
			<g>
				<path class="st1" d="M135.2,255.8c-0.38,0-0.77-0.07-1.14-0.2c-1.33-0.48-2.21-1.74-2.22-3.15c-0.01-5.55-0.01-11.09,0-16.64
					l0-8.31l0-14.55c0-9.7,0-19.4,0-29.1c0-7.47,4.14-11.59,11.65-11.59c2.17,0,4.34,0.01,6.52,0.02c4.73,0.02,9.62,0.05,14.39-0.08
					c5.76-0.16,9.74,2.37,12.2,7.71c5.27,11.4,10.72,22.96,15.99,34.13l6.39,13.56c0.76,1.6,1.52,3.19,2.22,4.82
					c2.37,5.5,0.37,11.03-4.98,13.76c0,0-0.01,0-0.01,0c-1.41,0.72-2.9,1.4-4.54,2.1c-0.26,0.12-0.59,0.24-0.91,0.35
					c-2.55,0.91-5.18,0.91-7.51-0.04c-2.36-0.94-4.32-2.85-5.63-5.49c-0.29-0.59-0.57-1.18-0.86-1.77c0,1.41,0,2.82,0.01,4.24
					c0.01,1.85-1.48,3.35-3.33,3.37c-7.65,0.06-15.3,0.12-22.94,0.19c-5.4,0.05-9.8,1.94-12.73,5.46
					C137.13,255.37,136.18,255.8,135.2,255.8z M144.05,178.97c-0.18,0-0.36,0-0.55,0c-3.79,0-4.95,1.14-4.95,4.89
					c-0.01,9.7,0,19.4,0,29.1l0,14.56l0,8.31c0,3.19,0,6.39,0,9.59c3.44-1.91,7.49-2.94,11.9-2.98c6.54-0.06,13.08-0.11,19.62-0.17
					c0-2.81,0-5.63,0.01-8.44l0.01-6.56c0-1.6,1.13-2.97,2.69-3.29l0.31-0.06c1.51-0.29,3.15,0.46,3.8,1.84l0.88,1.85
					c0.64,1.37,1.26,2.72,1.89,4.08c1.29,2.79,2.61,5.68,3.98,8.46c0.39,0.79,1.07,1.82,2.11,2.24c0.81,0.33,1.76,0.3,2.84-0.08
					c0.19-0.06,0.29-0.1,0.4-0.15c1.56-0.66,2.91-1.29,4.18-1.93c2.19-1.12,2.83-2.89,1.87-5.13c-0.67-1.55-1.39-3.07-2.12-4.59
					l-6.4-13.58c-5.28-11.19-10.73-22.76-16.01-34.18c-1.33-2.9-2.87-3.9-5.93-3.82c-4.88,0.13-9.82,0.11-14.61,0.08
					C148,178.98,146.02,178.97,144.05,178.97z M194.7,243.2h0.01H194.7z"/>
			</g>
		</g>
	</g>
</g>
</svg>
