<svg xmlns="http://www.w3.org/2000/svg" width="17.756" height="19.116" viewBox="0 0 17.756 19.116"><g transform="translate(0)"><g transform="translate(0)"><path d="M215.01,199.852h2.059a.857.857,0,0,0,0-1.714h-2.06a1.514,1.514,0,0,0-1.249-.659l-.024,0-1.877-2.641a.857.857,0,1,0-1.4.993l1.878,2.644a1.513,1.513,0,0,0,2.669,1.375Z" transform="translate(-204.882 -188.837)" fill="#c899a1"/><path d="M38.641,59.219a8.878,8.878,0,1,0-12.661,0l-.8.8a1.134,1.134,0,1,0,1.6,1.6l1-1a8.817,8.817,0,0,0,9.061,0l1,1a1.134,1.134,0,0,0,1.6-1.6Zm-6.331-1a.571.571,0,0,0-.571.572v.77a6.6,6.6,0,0,1-5.992-5.992h.77a.571.571,0,1,0,0-1.142h-.77a6.6,6.6,0,0,1,5.992-5.992v.77a.571.571,0,0,0,1.142,0v-.77a6.6,6.6,0,0,1,5.992,5.992H38.1a.571.571,0,1,0,0,1.142h.77a6.6,6.6,0,0,1-5.992,5.992v-.769A.572.572,0,0,0,32.31,58.222Z" transform="translate(-23.432 -42.842)" fill="#c899a1"/><path d="M30.824.807a4.129,4.129,0,0,0-6.262,4.907A9.66,9.66,0,0,1,30.824.807Z" transform="translate(-24.223)" fill="#c899a1"/><path d="M414.186,5.714A4.127,4.127,0,0,0,407.925.808,9.66,9.66,0,0,1,414.186,5.714Z" transform="translate(-396.77)" fill="#c899a1"/></g></g></svg>