<svg xmlns="http://www.w3.org/2000/svg" width="28.832" height="28.888" viewBox="0 0 28.832 28.888"><g transform="translate(0 0)"><path d="M62.2,33.6a1.7,1.7,0,0,0-1.7,1.7A1.669,1.669,0,0,0,62.2,37a1.7,1.7,0,0,0,1.7-1.7A1.742,1.742,0,0,0,62.2,33.6Z" transform="translate(-40.109 -28.446)" fill="#374561"/><path d="M44.737,37.5a7.137,7.137,0,1,0,7.08,7.08A7.143,7.143,0,0,0,44.737,37.5Zm0,11.668a4.531,4.531,0,1,1,4.531-4.531A4.545,4.545,0,0,1,44.737,49.168Z" transform="translate(-30.18 -30.136)" fill="#374561"/><path d="M44.721,53.388H33.166A8.7,8.7,0,0,1,24.5,44.721V33.166A8.63,8.63,0,0,1,33.166,24.5h11.5a8.7,8.7,0,0,1,8.666,8.666V44.721A8.582,8.582,0,0,1,44.721,53.388ZM33.166,27.219a5.947,5.947,0,0,0-5.947,5.947V44.721a5.947,5.947,0,0,0,5.947,5.947h11.5a5.947,5.947,0,0,0,5.947-5.947V33.166a5.947,5.947,0,0,0-5.947-5.947Z" transform="translate(-24.5 -24.5)" fill="#374561"/></g></svg>