<svg xmlns="http://www.w3.org/2000/svg" width="51.167" height="51.267" viewBox="0 0 51.167 51.267"><g transform="translate(0)"><g transform="translate(0 0)"><path d="M63.516,33.6A3.024,3.024,0,0,0,60.5,36.616a2.962,2.962,0,0,0,3.016,3.016,3.024,3.024,0,0,0,3.016-3.016A3.091,3.091,0,0,0,63.516,33.6Z" transform="translate(-24.312 -24.452)" fill="#fff"/><path d="M50.266,37.5A12.666,12.666,0,1,0,62.831,50.065,12.677,12.677,0,0,0,50.266,37.5Zm0,20.708a8.042,8.042,0,1,1,8.042-8.042A8.065,8.065,0,0,1,50.266,58.208Z" transform="translate(-24.431 -24.432)" fill="#fff"/><path d="M60.387,75.767H39.88A15.445,15.445,0,0,1,24.5,60.387V39.88A15.316,15.316,0,0,1,39.88,24.5H60.286a15.445,15.445,0,0,1,15.38,15.38V60.387A15.231,15.231,0,0,1,60.387,75.767ZM39.88,29.325A10.554,10.554,0,0,0,29.325,39.88V60.387A10.554,10.554,0,0,0,39.88,70.942H60.286A10.554,10.554,0,0,0,70.841,60.387V39.88A10.554,10.554,0,0,0,60.286,29.325Z" transform="translate(-24.5 -24.5)" fill="#fff"/></g></g></svg>