<svg xmlns="http://www.w3.org/2000/svg" width="150" height="150.005" viewBox="0 0 150 150.005"><g transform="translate(-3.5 -4)"><path d="M78.5,154.005h0a75,75,0,0,1-75-75h0A75,75,0,0,1,78.5,4h0a75,75,0,0,1,75,75h0A75,75,0,0,1,78.5,154.005Z" fill="#c899a1"/><g transform="translate(31.516 38.973)"><g transform="translate(19.629 45.74)"><path d="M119.645,161.65h-2.309l1.05,23.193c0,6.809-4.383,12.344-9.763,12.344s-9.753-5.535-9.753-12.3l.983-23.239H97.543l-.983,23.193c0,8.079,5.407,14.653,12.067,14.653s12.078-6.574,12.078-14.7Z" transform="translate(-96.56 -161.65)" fill="#f8fffe"/></g><path d="M129.293,72.31H76.477c-4.925,0-9.548,2.427-13,6.83A26.3,26.3,0,0,0,58.22,95.3c0,12.666,8.192,22.988,18.262,22.988H129.3a3.455,3.455,0,0,0,3.466-3.446V102.988a.662.662,0,0,0-.66-.66h-.988a.662.662,0,0,0-.66.66V114.84a1.147,1.147,0,0,1-1.157,1.131H76.477c-8.8,0-15.948-9.282-15.948-20.674A24,24,0,0,1,65.29,80.563c3.016-3.835,6.994-5.939,11.187-5.939h52.816a1.139,1.139,0,0,1,1.157,1.121V98.2a.662.662,0,0,0,.66.66h.988a.662.662,0,0,0,.66-.66V75.74A3.442,3.442,0,0,0,129.293,72.31Z" transform="translate(-58.22 -72.31)" fill="#f8fffe"/><g transform="translate(8.929 7.516)"><path d="M91.163,118a15.5,15.5,0,1,1,15.5-15.5A15.521,15.521,0,0,1,91.163,118Zm0-28.7a13.194,13.194,0,1,0,13.194,13.194A13.208,13.208,0,0,0,91.163,89.3Z" transform="translate(-75.66 -86.99)" fill="#f8fffe"/></g><g transform="translate(46.892 7.751)"><path d="M164.151,95.427H152.959a3.153,3.153,0,0,1-3.149-3.149V90.6a3.153,3.153,0,0,1,3.149-3.149h11.192A3.153,3.153,0,0,1,167.3,90.6v1.679A3.156,3.156,0,0,1,164.151,95.427Zm-11.192-5.668a.835.835,0,0,0-.835.835v1.679a.835.835,0,0,0,.835.835h11.192a.835.835,0,0,0,.835-.835V90.6a.835.835,0,0,0-.835-.835H152.959Z" transform="translate(-149.81 -87.45)" fill="#f8fffe"/></g><g transform="translate(46.892 19.122)"><path d="M164.151,117.642H152.959a3.153,3.153,0,0,1-3.149-3.149v-1.684a3.153,3.153,0,0,1,3.149-3.149h11.192a3.153,3.153,0,0,1,3.149,3.149v1.684A3.153,3.153,0,0,1,164.151,117.642Zm-11.192-5.663a.835.835,0,0,0-.835.835V114.5a.835.835,0,0,0,.835.835h11.192a.835.835,0,0,0,.835-.835v-1.684a.835.835,0,0,0-.835-.835Z" transform="translate(-149.81 -109.66)" fill="#f8fffe"/></g><g transform="translate(46.892 31.072)"><path d="M164.151,140.982H152.959a3.153,3.153,0,0,1-3.149-3.149v-1.684A3.153,3.153,0,0,1,152.959,133h11.192a3.153,3.153,0,0,1,3.149,3.149v1.684A3.156,3.156,0,0,1,164.151,140.982Zm-11.192-5.668a.835.835,0,0,0-.835.835v1.684a.835.835,0,0,0,.835.835h11.192a.835.835,0,0,0,.835-.835v-1.684a.835.835,0,0,0-.835-.835Z" transform="translate(-149.81 -133)" fill="#f8fffe"/></g><g transform="translate(72.235 8.934)"><path d="M205.454,89.76h-3.19a2.956,2.956,0,0,0-2.954,2.959v14.044a.607.607,0,0,0,.609.609h1.091a.607.607,0,0,0,.609-.609V93.329a1.259,1.259,0,0,1,1.259-1.259h2.58a1.259,1.259,0,0,1,1.259,1.259v21.534a1.259,1.259,0,0,1-1.259,1.259h-2.58a1.259,1.259,0,0,1-1.259-1.259v-3.415a.607.607,0,0,0-.609-.609h-1.091a.607.607,0,0,0-.609.609v4.024a2.948,2.948,0,0,0,2.309,2.888,3.037,3.037,0,0,0,.645.072h3.19a3.568,3.568,0,0,0,3.569-3.569V93.329A3.565,3.565,0,0,0,205.454,89.76Z" transform="translate(-199.31 -89.76)" fill="#f8fffe"/></g><g transform="translate(86.75 9.968)"><path d="M228.607,100.279a.947.947,0,0,1-.671-1.618l6.6-6.6a.948.948,0,0,1,1.341,1.341l-6.6,6.6A.941.941,0,0,1,228.607,100.279Z" transform="translate(-227.66 -91.78)" fill="#f8fffe"/></g><g transform="translate(86.75 28.087)"><path d="M235.212,135.669a.95.95,0,0,1-.671-.276l-6.6-6.6a.949.949,0,1,1,1.341-1.341l6.6,6.6a.952.952,0,0,1,0,1.341A.963.963,0,0,1,235.212,135.669Z" transform="translate(-227.66 -127.17)" fill="#f8fffe"/></g><g transform="translate(86.238 22.317)"><path d="M237.657,117.8H227.612a.952.952,0,0,1,0-1.9h10.045a.952.952,0,0,1,0,1.9Z" transform="translate(-226.66 -115.9)" fill="#f8fffe"/></g><g transform="translate(21.155 50.768)"><path d="M110.537,173.375H100.492a.952.952,0,0,1,0-1.9h10.045a.952.952,0,1,1,0,1.9Z" transform="translate(-99.54 -171.47)" fill="#f8fffe"/></g><g transform="translate(7.89 82.536)"><path d="M129.374,235.86H74.045a.413.413,0,0,1-.415-.415v-1.51a.413.413,0,0,1,.415-.415h55.33a.413.413,0,0,1,.415.415v1.51A.42.42,0,0,1,129.374,235.86Z" transform="translate(-73.63 -233.52)" fill="#f8fffe"/></g></g></g></svg>