<svg xmlns="http://www.w3.org/2000/svg" width="150" height="150.005" viewBox="0 0 150 150.005"><g transform="translate(-3.5 -4)"><path d="M78.5,154.005h0a75,75,0,0,1-75-75h0A75,75,0,0,1,78.5,4h0a75,75,0,0,1,75,75h0A75,75,0,0,1,78.5,154.005Z" fill="#c899a1"/><g transform="translate(34.475 34.78)"><rect width="88.061" height="19.732" transform="translate(0)" fill="#f8fffe"/><rect width="88.061" height="7.613" transform="translate(0 80.606)" fill="#f8fffe"/><rect width="80.294" height="15.8" transform="translate(3.886 15.196)" fill="#f8fffe"/><rect width="2.283" height="18.651" transform="translate(6.63 21.672)" fill="#f8fffe"/><g transform="translate(0 39.561)"><path d="M77.419,141.39H67.374A3.368,3.368,0,0,0,64,144.754V183a3.365,3.365,0,0,0,3.22,3.364.774.774,0,0,0,.154.01h2V184.33h-2a.4.4,0,0,1-.154-.02,1.3,1.3,0,0,1-1.167-1.3v-38.25a1.315,1.315,0,0,1,1.321-1.311H77.419a1.315,1.315,0,0,1,1.321,1.311v34.1h2.048v-34.1A3.365,3.365,0,0,0,77.419,141.39Z" transform="translate(-64 -141.39)" fill="#f8fffe"/></g><rect width="2.12" height="33.473" transform="translate(28.169 42.141)" fill="#f8fffe"/><rect width="2.15" height="12.979" transform="translate(3.22 75.061)" fill="#f8fffe"/><rect width="2.606" height="12.979" transform="translate(81.574 75.061)" fill="#f8fffe"/><rect width="80.954" height="1.956" transform="translate(3.22 75.061)" fill="#f8fffe"/><rect width="2.468" height="54.854" transform="translate(75.957 20.336)" fill="#f8fffe"/><rect width="2.396" height="21.155" transform="translate(76.122 38.363) rotate(90)" fill="#f8fffe"/><rect width="2.396" height="2.396" transform="translate(53.314 38.362) rotate(90)" fill="#f8fffe"/><rect width="28.205" height="25.686" transform="translate(44.517 45.346)" fill="#f8fffe"/><g transform="translate(17.515 41.45)"><path d="M109.919,145.08A11.75,11.75,0,0,0,98.21,156.84v21.908H99.9V156.84a10.017,10.017,0,1,1,20.034,0v21.908h1.695V156.84A11.751,11.751,0,0,0,109.919,145.08Z" transform="translate(-98.21 -145.08)" fill="#f8fffe"/></g><ellipse cx="4.403" cy="4.418" rx="4.403" ry="4.418" transform="translate(24.826 56.953)" fill="#f8fffe"/><rect width="18.759" height="17.315" transform="translate(4.296 53.389)" fill="#fbfffe"/><g transform="translate(6.39 54.756)"><path d="M76.48,171.075v6.958h.41v-6.548H90.646v13.752H85.552v.41h5.509V171.07H76.48Z" transform="translate(-76.48 -171.07)" fill="#fcffff"/><g transform="translate(0.942 0.865)"><path d="M78.4,172.84V178.9h.41v-5.642h11.95V185.2H86.484v.41h4.685V172.84Z" transform="translate(-78.359 -172.799)" fill="#b19755"/><path d="M78.73,173.17v5.683h.082v-5.6H90.679v11.868H86.445v.082h4.316V173.17Zm0,0v5.683h.082v-5.6H90.679v11.868H86.445v.082h4.316V173.17Zm-.41-.41v6.1H78.4v-6.016H91.094v12.692H86.45v.082h4.726V172.76Zm12.359,12.359H86.445v.082h4.316V173.17H78.73v5.683h.082v-5.6H90.679v11.868Z" transform="translate(-78.32 -172.76)" fill="#95734f"/></g><g transform="translate(1.669 1.787)"><path d="M79.74,174.565v5.171h.41v-4.761H90.563v10.414H87.138v.41h3.835V174.56H79.74Z" transform="translate(-79.74 -174.56)" fill="#fceaec"/></g><g transform="translate(0 7.342)"><g transform="translate(0 0.169)"><path d="M76.879,185.878h-.4v-.138h1.51v4.07c0,1.608.353,2.411,1.362,2.411a2.08,2.08,0,0,0,1.69-.722l.123.082a2.3,2.3,0,0,1-1.884.8,2.258,2.258,0,0,1-1.807-.722,2.7,2.7,0,0,1-.594-1.946Z" transform="translate(-76.48 -185.74)" fill="#c899a1"/></g><g transform="translate(3.394)"><path d="M88.127,190.648a2.2,2.2,0,0,1-2.319,1.572c-1.792,0-2.7-1.449-2.7-3.43a3.533,3.533,0,0,1,.855-2.6,2.648,2.648,0,0,1,1.91-.778c1.587,0,2.058.84,2.058,1.413a.571.571,0,0,1-.614.609.561.561,0,0,1-.614-.568.573.573,0,0,1,.364-.543c.113-.056.169-.123.169-.215,0-.338-.686-.553-1.306-.553-1.28,0-1.495.937-1.495,2.171v2.626c0,.916.456,1.7,1.418,1.7a2.007,2.007,0,0,0,2.135-1.459Z" transform="translate(-83.11 -185.41)" fill="#c899a1"/></g><g transform="translate(7.977 6.374)"><path d="M92.06,198.183a.32.32,0,0,1,.317-.323.325.325,0,1,1-.317.323Z" transform="translate(-92.06 -197.86)" fill="#c899a1"/></g></g></g><g transform="translate(10.849 6.487)"><path d="M85.943,77.731H85.19V77.47h2.857v7.618c0,3.016.666,4.521,2.575,4.521a3.969,3.969,0,0,0,3.19-1.347l.225.159a4.98,4.98,0,0,1-6.973.159,5.041,5.041,0,0,1-1.121-3.645Z" transform="translate(-85.19 -77.122)" fill="#c899a1"/><path d="M114.613,89.342h-2.8v-2c-1.469,1.577-2.5,2.242-3.748,2.242-2.749,0-4.695-2.524-4.695-6.287a7.04,7.04,0,0,1,1.229-4.557,4.874,4.874,0,0,1,3.958-1.894h.174c3.277,0,5.115,2.56,5.115,5.483v6.743h.773v.266Zm-2.806-7.675c0-2.56-.963-4.536-3.1-4.536h-.138c-1.894,0-2.8,1.382-2.8,3.993v3.712c0,2.068.558,4.4,2.488,4.4,1.541,0,3.154-1.8,3.487-2.242.051-.072.072-.087.072-.174V81.668Z" transform="translate(-94.062 -76.819)" fill="#c899a1"/><path d="M130.682,86.139c0,2.258.246,3.082,1.751,3.082,3.435,0,5.1-4.572,5.1-7.936,0-2.048-.384-2.8-1.526-2.8-.282,0-.63.072-.947.072a.825.825,0,0,1-.927-.875.914.914,0,0,1,1.014-.891c1.562,0,2.647,1.541,2.647,4.347,0,3.522-1.541,8.443-5.831,8.443a3.261,3.261,0,0,1-2.5-.773c-.773-.737-.875-2.452-.875-3.768V77.4h-.753v-.261h2.857v9Z" transform="translate(-105.999 -76.79)" fill="#c899a1"/><path d="M159.848,87.73a4.45,4.45,0,0,1-4.029,1.858c-1.946,0-4.869-1.229-4.869-6.482,0-3.328,1.577-6.287,5.063-6.287a4.421,4.421,0,0,1,3.645,1.592l-.225.159a4.191,4.191,0,0,0-3.241-1.439c-2.468,0-2.611,2.135-2.611,3.625V82.7h3.993l-.015.317h-3.978v2.524c0,2.048.4,3.732,2.591,3.732a3.887,3.887,0,0,0,3.466-1.7Z" transform="translate(-117.282 -76.805)" fill="#c899a1"/><path d="M171.243,77.731h-.753V77.47h2.857v7.618c0,3.016.666,4.521,2.575,4.521a3.969,3.969,0,0,0,3.19-1.347l.225.159a4.98,4.98,0,0,1-6.973.159,5.041,5.041,0,0,1-1.121-3.645Z" transform="translate(-126.818 -77.122)" fill="#c899a1"/><path d="M188.723,77.731h-.753V77.47h2.857v7.618c0,3.016.666,4.521,2.575,4.521a3.969,3.969,0,0,0,3.19-1.347l.225.159a4.98,4.98,0,0,1-6.973.159,5.041,5.041,0,0,1-1.121-3.645Z" transform="translate(-135.349 -77.122)" fill="#c899a1"/><path d="M215.038,87.73a4.45,4.45,0,0,1-4.029,1.858c-1.946,0-4.869-1.229-4.869-6.482,0-3.328,1.577-6.287,5.063-6.287a4.421,4.421,0,0,1,3.645,1.592l-.225.159a4.191,4.191,0,0,0-3.241-1.439c-2.468,0-2.611,2.135-2.611,3.625V82.7h3.993l-.015.317h-3.978v2.524c0,2.048.4,3.732,2.591,3.732a3.887,3.887,0,0,0,3.466-1.7Z" transform="translate(-144.216 -76.805)" fill="#c899a1"/></g><g transform="translate(56.305 57.232)"><path d="M177.172,179.1a.383.383,0,0,1-.548,0l-2.534-2.534a.387.387,0,0,1,.548-.548l2.534,2.534A.383.383,0,0,1,177.172,179.1Z" transform="translate(-173.975 -175.905)" fill="#c899a1"/></g><g transform="translate(57.237 55.276)"><path d="M180.021,176.311a.383.383,0,0,1-.548,0l-3.563-3.563a.387.387,0,0,1,.548-.548l3.563,3.563A.383.383,0,0,1,180.021,176.311Z" transform="translate(-175.795 -172.085)" fill="#c899a1"/></g></g></g></svg>