<svg xmlns="http://www.w3.org/2000/svg" width="150" height="150.005" viewBox="0 0 150 150.005"><g transform="translate(-3.5 -4)"><path d="M78.5,154.005h0a75,75,0,0,1-75-75h0A75,75,0,0,1,78.5,4h0a75,75,0,0,1,75,75h0A75,75,0,0,1,78.5,154.005Z" fill="#c899a1"/><g transform="translate(20.723 27.553)"><g transform="translate(0 10.274)"><path d="M131.416,115.616l-46.37,46.37L45.224,122.164l46.37-46.37,32.337.118,5.693-5.693L89.239,70.07l-52.1,52.094L85.046,170.07l52.094-52.094-.148-40.38L131.3,83.289Z" transform="translate(-37.14 -70.07)" fill="#fdfffe"/></g><rect width="39.259" height="5.811" transform="translate(78.403 27.76) rotate(-45)" fill="#fdfffe"/><g transform="translate(67.594 24.463)"><path d="M184.716,113.336a9.112,9.112,0,1,1,0-12.887A9.122,9.122,0,0,1,184.716,113.336Zm-9.159-9.159a3.837,3.837,0,1,0,5.427,0A3.844,3.844,0,0,0,175.557,104.177Z" transform="translate(-169.165 -97.785)" fill="#fdfffe"/></g><g transform="translate(22.993 51.319)"><path d="M84.231,163.67H82.05v-7.654a4.046,4.046,0,0,1,4.06-4.306h.138a4.052,4.052,0,0,1,3.154,1.51,4.757,4.757,0,0,1,.875,3.1,4.2,4.2,0,0,1-4.086,4.306,2.62,2.62,0,0,1-2.55-1.618v4.459h.589v.2Zm4.249-8.811c0-1.357-.369-2.934-2.248-2.934H86.12c-1.69,0-2.483,1.316-2.483,3.1v3.087a2.427,2.427,0,0,0,2.524,2.248c1.976,0,2.319-1.51,2.319-3.717Z" transform="translate(-82.05 -150.957)" fill="#fdfffe"/><path d="M108.661,163.192a1.019,1.019,0,0,1-1.029.645,1.28,1.28,0,0,1-1.439-1.178,2.072,2.072,0,0,1-1.91,1.178,2.868,2.868,0,0,1-2.33-.988,4.218,4.218,0,0,1-.824-2.785,4.721,4.721,0,0,1,.548-2.457,2.851,2.851,0,0,1,2.632-1.357,3.21,3.21,0,0,1,1.469.358c1.178.63,1.633,1.562,1.633,3.251v3.031c0,.538.246.7.466.7a.568.568,0,0,0,.548-.4Zm-2.5-3.881c0-1.812-.358-2.841-1.864-2.841-1.413,0-1.771.963-1.771,2.166v2.058c0,1.976.41,2.908,1.756,2.908a1.807,1.807,0,0,0,1.879-1.7Z" transform="translate(-91.361 -153.173)" fill="#fdfffe"/><path d="M122.689,162.081a2.417,2.417,0,0,1-2.524,1.756c-2.1,0-2.975-1.659-2.975-3.937a3.978,3.978,0,0,1,.865-2.77,2.784,2.784,0,0,1,2.155-.881c1.495,0,2.427.742,2.427,1.73a.758.758,0,0,1-.753.835c-.44,0-.783-.236-.783-.671,0-.62.645-.62.645-.963,0-.44-.809-.742-1.439-.742-1.126,0-1.659.824-1.659,2.278v2.76c0,1.331.579,2.125,1.633,2.125a2.144,2.144,0,0,0,2.207-1.592Z" transform="translate(-99.199 -153.173)" fill="#fdfffe"/><path d="M137.31,160.193a1.124,1.124,0,0,1-1.152.742c-.712,0-1.469-.328-1.894-1.838a12.313,12.313,0,0,0-.5-1.48c-.328-.727-.794-.963-1.111-.963a.555.555,0,0,0-.425.179l-.276.276c-.067.067-.1.138-.1.369v3.1h.589v.195H130.03v-.195h.589V150.445h-.589v-.2h1.823v6.64l2.483-2.468c.276-.276.41-.466.41-.548,0-.108-.148-.123-.179-.123h-.317v-.2h1.879v.2a1.729,1.729,0,0,0-1.495.686l-2.074,2.074a1.867,1.867,0,0,1,.671-.082,2.116,2.116,0,0,1,2.1,1.633c.164.548.287,1.249.492,2,.1.358.287.645.589.645a.806.806,0,0,0,.645-.492h.256Z" transform="translate(-105.465 -150.24)" fill="#fdfffe"/><path d="M152.4,163.192a1.019,1.019,0,0,1-1.029.645,1.28,1.28,0,0,1-1.439-1.178,2.07,2.07,0,0,1-1.9,1.178,2.886,2.886,0,0,1-2.335-.988,4.218,4.218,0,0,1-.824-2.785,4.672,4.672,0,0,1,.548-2.457,2.854,2.854,0,0,1,2.637-1.357,3.21,3.21,0,0,1,1.469.358c1.183.63,1.633,1.562,1.633,3.251v3.031c0,.538.246.7.466.7a.569.569,0,0,0,.548-.4Zm-2.493-3.881c0-1.812-.358-2.841-1.864-2.841-1.413,0-1.771.963-1.771,2.166v2.058c0,1.976.41,2.908,1.756,2.908a1.807,1.807,0,0,0,1.879-1.7v-2.591Z" transform="translate(-112.707 -153.173)" fill="#fdfffe"/><path d="M167.32,155.472a.42.42,0,0,1-.425.466c-.425,0-.384-.481-.548-.481-.138,0-.328.384-.328.947,0,.522.328.809.328,1.649a2.36,2.36,0,0,1-2.483,2.539,2.52,2.52,0,0,1-1.208-.261c-1.044.041-1.51.507-1.51.963,0,.4.236.6.881.6h2.458c1.961,0,2.662,1,2.662,2.335,0,1.976-1.7,2.539-3.277,2.539-1.526,0-3.169-.358-3.169-2.084a1.572,1.572,0,0,1,1.208-1.521,1.309,1.309,0,0,1-1.126-1.428c0-.686.343-1.387,1.633-1.551a2.486,2.486,0,0,1-1.044-2.074,2.337,2.337,0,0,1,2.5-2.483,2.236,2.236,0,0,1,1.92.85c.067-.783.41-1.521.973-1.521A.524.524,0,0,1,167.32,155.472Zm-2.3,7.726H162.6a1.555,1.555,0,0,0-1.7,1.495c0,.824.466,1.853,2.964,1.853,1.659,0,2.964-.712,2.964-1.992C166.823,163.469,166.014,163.2,165.016,163.2Zm.138-5.5c0-1.219-.179-1.879-1.29-1.879-1.1,0-1.265.66-1.265,1.879v1c0,1.085.425,1.73,1.265,1.73.916,0,1.29-.645,1.29-1.73Z" transform="translate(-120.433 -152.543)" fill="#fdfffe"/><path d="M180.93,162.1a2.541,2.541,0,0,1-2.5,1.73c-1.771,0-3.062-.963-3.062-3.251v-.988c0-2.155.988-3.333,2.908-3.333,1.853,0,2.76,1.275,2.76,3.062v.3c0,.179-.056.246-.276.246h-3.922v1.265c0,1.649.712,2.468,1.771,2.468a2.3,2.3,0,0,0,2.1-1.592Zm-1.428-2.457c.23,0,.287-.041.287-.3v-.369a3.956,3.956,0,0,0-.276-1.659,1.335,1.335,0,0,0-1.234-.85c-1.055,0-1.439.824-1.439,2.155v1.029H179.5Z" transform="translate(-127.592 -153.178)" fill="#fdfffe"/><path d="M189.45,163.724v-1.48h.189a2.35,2.35,0,0,0,2.253,1.4,1.575,1.575,0,0,0,1.771-1.51c0-.62-.4-1.152-1.48-1.439l-.619-.164c-1.428-.384-2.058-.932-2.058-2.125a2.244,2.244,0,0,1,2.376-2.115,2.687,2.687,0,0,1,1.592.481.539.539,0,0,0,.195.108c.067,0,.082-.1.082-.3v-.1h.2l-.026,1.387h-.2a1.689,1.689,0,0,0-1.838-1.357c-.973,0-1.659.563-1.659,1.346s.619,1.029,1.4,1.234l.686.179c1.454.384,2.125.947,2.125,2.237a2.382,2.382,0,0,1-2.539,2.36,2.773,2.773,0,0,1-1.894-.66c-.138-.123-.2-.195-.261-.195s-.067.164-.082.589v.123h-.21Z" transform="translate(-134.463 -153.192)" fill="#fdfffe"/></g></g></g></svg>