<svg xmlns="http://www.w3.org/2000/svg" xmlns:xlink="http://www.w3.org/1999/xlink" width="50" height="50" viewBox="0 0 50 50"><defs><style>.a{clip-path:url(#b);}.b{fill:#c899a1;}</style><clipPath id="b"><rect width="50" height="50"/></clipPath></defs><g id="a" class="a"><g transform="translate(0 0.001)"><path class="b" d="M25.231,1.952A23.318,23.318,0,0,0,8.764,8.709a22.874,22.874,0,0,0,0,32.58,23.409,23.409,0,0,0,32.934,0,22.881,22.881,0,0,0,0-32.58A23.318,23.318,0,0,0,25.231,1.952m0-1.952A25,25,0,1,1,7.4,7.239,25,25,0,0,1,25.231,0Z"/><g transform="translate(10.067 -61.501)"><g transform="translate(20.546 77.501)"><g transform="translate(0 0)"><path class="b" d="M361.269,101.721l-9.058,9,9.058,9a2.594,2.594,0,0,0,.263-1.125V102.843A2.594,2.594,0,0,0,361.269,101.721Z" transform="translate(-352.211 -101.721)"/></g></g><g transform="translate(1.498 76)"><g transform="translate(0 0)"><path class="b" d="M51.461,76H26.842a2.594,2.594,0,0,0-1.125.263L37.3,87.782a2.628,2.628,0,0,0,3.712,0l11.58-11.519A2.594,2.594,0,0,0,51.461,76Z" transform="translate(-25.717 -76)"/></g></g><g transform="translate(0 77.501)"><path class="b" d="M.263,101.721A2.594,2.594,0,0,0,0,102.843v15.75a2.594,2.594,0,0,0,.263,1.125l9.056-9Z" transform="translate(0 -101.721)"/></g><g transform="translate(1.501 87.738)"><path class="b" d="M43.529,277.211l-1.282,1.282a4.38,4.38,0,0,1-6.187,0l-1.282-1.282-9.057,9a2.594,2.594,0,0,0,1.125.263H51.463a2.594,2.594,0,0,0,1.125-.263Z" transform="translate(-25.721 -277.211)"/></g></g></g></g></svg>