<svg xmlns="http://www.w3.org/2000/svg" xmlns:xlink="http://www.w3.org/1999/xlink" width="50" height="50" viewBox="0 0 50 50"><defs><style>.a{clip-path:url(#b);}.b{fill:#c899a1;}</style><clipPath id="b"><rect width="50" height="50"/></clipPath></defs><g id="a" class="a"><g transform="translate(0 0.001)"><path class="b" d="M25.231,1.952A23.318,23.318,0,0,0,8.764,8.709a22.874,22.874,0,0,0,0,32.58,23.409,23.409,0,0,0,32.934,0,22.881,22.881,0,0,0,0-32.58A23.318,23.318,0,0,0,25.231,1.952m0-1.952A25,25,0,1,1,7.4,7.239,25,25,0,0,1,25.231,0Z"/><g transform="translate(-72.801 40.003)"><path class="b" d="M118.794,27.011a.469.469,0,0,1-.469.469h-5.951a.469.469,0,1,1,0-.937h5.951A.469.469,0,0,1,118.794,27.011Zm5.333-24.425V27.407a2.714,2.714,0,0,1-2.82,2.587H109.444a2.713,2.713,0,0,1-2.82-2.587V2.586A2.714,2.714,0,0,1,109.444,0h11.864a2.714,2.714,0,0,1,2.82,2.587Zm-.937,0a1.78,1.78,0,0,0-1.883-1.65H118.52V1.96a.469.469,0,0,1-.469.469h-5.663a.469.469,0,0,1-.469-.469V.936h-2.476a1.779,1.779,0,0,0-1.882,1.65V27.407a1.779,1.779,0,0,0,1.882,1.65h11.864a1.779,1.779,0,0,0,1.882-1.65Z" transform="translate(-17.575 -30)"/></g></g></g></svg>