<svg xmlns="http://www.w3.org/2000/svg" width="35.248" height="40" viewBox="0 0 35.248 40"><defs><style>.a{fill:#c899a1;}.b{fill:#fff;}</style></defs><g transform="translate(-2.376 0)"><path class="a" d="M31.5,15.964,5.373.52A3.543,3.543,0,0,0,0,3.585V34.466a3.559,3.559,0,0,0,5.373,3.065L31.5,22.094A3.559,3.559,0,0,0,31.5,15.964Z" transform="translate(3.376 0.968)"/><path class="b" d="M3.552-.968a4.582,4.582,0,0,1,2.33.627L32.006,15.1a4.559,4.559,0,0,1,0,7.853L5.882,38.392a4.545,4.545,0,0,1-2.315.64A4.637,4.637,0,0,1,.4,37.759,4.5,4.5,0,0,1-1,34.466V3.585A4.475,4.475,0,0,1,.437.208,4.624,4.624,0,0,1,3.552-.968Zm.015,38a2.511,2.511,0,0,0,1.3-.361L30.988,21.233a2.559,2.559,0,0,0,0-4.407L4.864,1.38a2.578,2.578,0,0,0-1.312-.348h0a2.664,2.664,0,0,0-1.773.659A2.469,2.469,0,0,0,1,3.585V34.466a2.522,2.522,0,0,0,.779,1.846A2.618,2.618,0,0,0,3.567,37.032Z" transform="translate(3.376 0.968)"/></g></svg>