<svg xmlns="http://www.w3.org/2000/svg" width="16.691" height="15.949" viewBox="0 0 16.691 15.949"><path d="M485.508-468.574l1.984,4.02a.767.767,0,0,0,.578.42l4.436.645a.768.768,0,0,1,.426,1.31l-3.21,3.129a.768.768,0,0,0-.221.68l.758,4.418a.768.768,0,0,1-1.114.809l-3.968-2.086a.768.768,0,0,0-.715,0l-3.968,2.086a.768.768,0,0,1-1.114-.809l.758-4.418a.768.768,0,0,0-.221-.68l-3.21-3.129a.768.768,0,0,1,.426-1.31l4.436-.645a.767.767,0,0,0,.578-.42l1.984-4.02A.768.768,0,0,1,485.508-468.574Z" transform="translate(-476.474 469.003)" fill="#ff9300"/></svg>