<svg xmlns="http://www.w3.org/2000/svg" width="50.001" height="50" viewBox="0 0 50.001 50"><defs><style>.a{fill:#c899a1;}</style></defs><g transform="translate(0 0)"><path class="a" d="M25.231,1.952A23.318,23.318,0,0,0,8.764,8.709a22.874,22.874,0,0,0,0,32.58,23.409,23.409,0,0,0,32.934,0,22.881,22.881,0,0,0,0-32.58A23.318,23.318,0,0,0,25.231,1.952m0-1.952A25,25,0,1,1,0,25,25,25,0,0,1,25.231,0Z" transform="translate(0 0)"/><g transform="translate(13.922 10.234)"><path class="a" d="M159.1,1003.031c-.046-.182-.115-.488-.2-.879a6.169,6.169,0,0,0,.668.77,4.482,4.482,0,0,0,6.521,0,6.2,6.2,0,0,0,.67-.772c-.081.39-.15.7-.2.878l4.276-.753s-.656-8.772-.983-10.516c-.606-3.252-2.348-4.82-4.565-4.82l-2.46.136-2.466-.136c-2.26,0-3.971,1.635-4.564,4.82-.324,1.743-.976,10.516-.976,10.516Zm-.586-3a9.321,9.321,0,0,1-.405-1.327.906.906,0,0,1-.953-.953v-.976a.908.908,0,0,1,.906-.952h0a.083.083,0,0,0-.007-.04,14.534,14.534,0,0,1,.074-2.383,6.389,6.389,0,0,0,3.524-1.68c.844,2.018,4.339,2.59,5.948,2.747.014.42.01.862-.008,1.315a.083.083,0,0,1-.007.04h0a.908.908,0,0,1,.906.952v.976a.906.906,0,0,1-.953.953,9.323,9.323,0,0,1-.406,1.326c-.924,2.382-2.619,3.571-4.313,3.571s-3.384-1.184-4.306-3.57Z" transform="translate(-151.995 -986.453)"/><path class="a" d="M162.809,1004.807a5.009,5.009,0,0,1-3.221-1.2l-5.308-.934.033-.44c.027-.359.662-8.819.987-10.569.618-3.319,2.457-5.219,5.043-5.219h.026l2.44.134,2.46-.135c2.588,0,4.427,1.9,5.045,5.219.328,1.75.962,10.21.99,10.569l.033.44-5.31.935a5.012,5.012,0,0,1-3.219,1.2Zm-4.766-8.992v.488a.428.428,0,0,0-.421.464v.976a.426.426,0,0,0,.465.464h.39l.087.379a8.868,8.868,0,0,0,.384,1.257c.793,2.044,2.235,3.263,3.859,3.263s3.067-1.219,3.858-3.26a8.882,8.882,0,0,0,.386-1.259l.087-.379h.39a.427.427,0,0,0,.465-.465v-.976a.427.427,0,0,0-.42-.464h-.567l.083-.56v-.015c.011-.293.016-.565.015-.827a14.361,14.361,0,0,1-2.943-.653,5.309,5.309,0,0,1-2.642-1.75,7.24,7.24,0,0,1-2.96,1.3,15.319,15.319,0,0,0-.034,1.924v.029l.07.549h-.554Zm8.575,6.156.6.267-.036.172,3.118-.549c-.138-1.8-.666-8.547-.942-10.022-.531-2.845-1.977-4.416-4.072-4.422l-2.472.136h-.026l-2.452-.135c-2.1.007-3.541,1.576-4.071,4.422-.274,1.476-.8,8.225-.94,10.022l3.118.549-.035-.17.6-.266a7.668,7.668,0,0,1-.961-1.776,9.492,9.492,0,0,1-.345-1.063,1.383,1.383,0,0,1-1.046-1.392v-.976a1.4,1.4,0,0,1,.892-1.35,14.024,14.024,0,0,1,.09-2.089l.046-.351.348-.065a5.916,5.916,0,0,0,3.249-1.526l.515-.576.3.714a3.746,3.746,0,0,0,2.4,1.8,13.957,13.957,0,0,0,3.147.65l.427.042.014.429c.01.3.011.629,0,.976a1.4,1.4,0,0,1,.892,1.35v.976a1.383,1.383,0,0,1-1.046,1.392,9.541,9.541,0,0,1-.346,1.066,7.658,7.658,0,0,1-.958,1.767Z" transform="translate(-151.981 -986.441)"/><path class="a" d="M142.729,1100.494h20.156l.281-3.041c.025-3.123-.488-3.849-1.779-5.1-1.345-1.3-3.211-1.581-5.076-1.867l-3.482,6.013-3.479-6.013c-1.866.286-3.732.567-5.076,1.867-1.21,1.171-1.838,1.939-1.78,5.1Z" transform="translate(-142.001 -1070.407)"/><path class="a" d="M163.318,1100.969H142.265l-.272-3.52c-.062-3.364.655-4.224,1.929-5.455,1.452-1.4,3.416-1.7,5.323-1.995l.349-.054,3.221,5.571,3.226-5.571.35.054c1.9.293,3.869.593,5.321,1.995,1.391,1.343,1.952,2.212,1.929,5.45v.041Zm-20.149-.976h19.259l.238-2.578c.022-3-.455-3.585-1.631-4.719-1.16-1.12-2.765-1.419-4.482-1.685l-3.737,6.454-3.734-6.454c-1.717.265-3.319.565-4.482,1.685-1.051,1.016-1.687,1.63-1.631,4.72Z" transform="translate(-141.989 -1070.394)"/></g></g></svg>