<svg xmlns="http://www.w3.org/2000/svg" width="51.698" height="51.224" viewBox="0 0 51.698 51.224"><path d="M25.849,2A23.889,23.889,0,0,0,8.979,8.922a23.524,23.524,0,0,0-5.108,7.506,23.479,23.479,0,0,0,0,18.368A23.524,23.524,0,0,0,8.979,42.3a23.983,23.983,0,0,0,33.741,0A23.524,23.524,0,0,0,47.828,34.8a23.479,23.479,0,0,0,0-18.368A23.524,23.524,0,0,0,42.72,8.922,23.889,23.889,0,0,0,25.849,2m0-2A25.613,25.613,0,1,1,0,25.612,25.731,25.731,0,0,1,25.849,0Z" transform="translate(0 0)" fill="#c899a1"/><g transform="translate(14.763 10.986)"><path d="M159.2,1003.425c-.047-.186-.118-.5-.2-.9a6.322,6.322,0,0,0,.684.789,4.592,4.592,0,0,0,6.681,0,6.369,6.369,0,0,0,.686-.791c-.083.4-.154.713-.2.9l4.381-.771s-.672-8.987-1.007-10.774c-.621-3.332-2.406-4.938-4.677-4.938l-2.52.139-2.526-.139c-2.315,0-4.068,1.675-4.676,4.938-.332,1.786-1,10.774-1,10.774Zm-.6-3.07a9.548,9.548,0,0,1-.415-1.359.928.928,0,0,1-.976-.976v-1a.93.93,0,0,1,.928-.975h0c0-.014,0-.027-.007-.041a14.885,14.885,0,0,1,.076-2.441,6.546,6.546,0,0,0,3.61-1.721c.865,2.068,4.445,2.653,6.094,2.814.014.43.01.883-.008,1.347,0,.014,0,.027-.007.041h0a.93.93,0,0,1,.928.975v1a.928.928,0,0,1-.976.976,9.552,9.552,0,0,1-.416,1.359c-.947,2.44-2.683,3.659-4.419,3.659S159.545,1002.8,158.6,1000.355Z" transform="translate(-152.425 -986.942)" fill="#c899a1"/><path d="M163.018,1005.257a5.132,5.132,0,0,1-3.3-1.232l-5.438-.957.034-.451c.028-.368.678-9.035,1.011-10.828.633-3.4,2.517-5.347,5.167-5.347h.027l2.5.137,2.52-.138c2.651,0,4.535,1.949,5.169,5.347.336,1.793.986,10.46,1.014,10.828l.034.451-5.44.958A5.135,5.135,0,0,1,163.018,1005.257Zm-4.883-9.212,0,.5a.438.438,0,0,0-.431.475v1a.437.437,0,0,0,.476.476h.4l.089.388a9.087,9.087,0,0,0,.393,1.288c.812,2.094,2.29,3.343,3.954,3.343s3.142-1.249,3.953-3.34a9.1,9.1,0,0,0,.395-1.29l.089-.388h.4a.437.437,0,0,0,.476-.476v-1a.437.437,0,0,0-.43-.475l-.581,0,.085-.574,0-.015c.011-.3.016-.579.015-.847a14.711,14.711,0,0,1-3.015-.669,5.439,5.439,0,0,1-2.707-1.793,7.418,7.418,0,0,1-3.033,1.337,15.7,15.7,0,0,0-.035,1.971l0,.03.072.563h-.568Zm8.785,6.307.614.274-.037.176,3.194-.562c-.141-1.842-.682-8.756-.965-10.268-.544-2.915-2.025-4.524-4.172-4.53l-2.533.139h-.027l-2.512-.138c-2.147.007-3.628,1.615-4.171,4.53-.281,1.512-.822,8.426-.963,10.268l3.194.562-.036-.174.613-.273a7.855,7.855,0,0,1-.985-1.819,9.727,9.727,0,0,1-.353-1.089,1.417,1.417,0,0,1-1.072-1.426v-1a1.439,1.439,0,0,1,.914-1.383,14.369,14.369,0,0,1,.092-2.14l.047-.36.357-.067a6.061,6.061,0,0,0,3.329-1.563l.528-.59.306.731a3.838,3.838,0,0,0,2.457,1.843,14.3,14.3,0,0,0,3.224.666l.437.043.014.439c.01.31.011.644,0,1a1.439,1.439,0,0,1,.914,1.383v1a1.417,1.417,0,0,1-1.072,1.426,9.772,9.772,0,0,1-.354,1.092A7.846,7.846,0,0,1,166.92,1002.352Z" transform="translate(-152.425 -986.942)" fill="#c899a1"/><path d="M142.735,1100.739h20.65l.288-3.115c.026-3.2-.5-3.943-1.823-5.22-1.378-1.331-3.29-1.62-5.2-1.913l-3.567,6.16-3.564-6.16c-1.912.293-3.823.581-5.2,1.913-1.24,1.2-1.883,1.987-1.824,5.22Z" transform="translate(-142.489 -1070.416)" fill="#c899a1"/><path d="M163.841,1101.239H142.272l-.279-3.606c-.064-3.446.671-4.327,1.976-5.589,1.488-1.437,3.5-1.746,5.453-2.044l.358-.055,3.3,5.708,3.305-5.708.359.055c1.949.3,3.964.607,5.451,2.044,1.425,1.376,2,2.266,1.976,5.584l0,.042Zm-20.643-1h19.731l.244-2.641c.023-3.077-.466-3.673-1.671-4.835-1.188-1.148-2.833-1.454-4.592-1.726l-3.829,6.612-3.826-6.612c-1.759.272-3.4.579-4.592,1.726-1.077,1.041-1.728,1.67-1.671,4.836Z" transform="translate(-142.489 -1070.416)" fill="#c899a1"/></g></svg>