<svg xmlns="http://www.w3.org/2000/svg" width="400" height="112.513" viewBox="0 0 400 112.513"><g transform="translate(-205.18 -330.11)"><g transform="translate(205.18 337.468)"><path d="M209.438,366.512H205.18V365.03h16.13v43.042c0,17.017,3.76,25.525,14.544,25.525,7.818,0,13.655-2.573,18.008-7.617l1.287.891s-5.935,8.508-20.086,8.508c-9.4,0-15.437-3.267-19.295-7.622-5.244-5.835-6.331-12.564-6.331-20.576Z" transform="translate(-205.18 -363.052)" fill="#9d844b"/><path d="M465.161,428.916h-15.83v-11.28c-8.311,8.9-14.151,12.664-21.175,12.664-15.535,0-26.516-14.248-26.516-35.518,0-10.2,1.482-18.8,6.926-25.728a27.49,27.49,0,0,1,22.361-10.684h.989c18.5,0,28.892,14.444,28.892,30.97v38.091h4.353Zm-15.83-43.335c0-14.448-5.442-25.63-17.512-25.63h-.793c-10.684,0-15.83,7.82-15.83,22.559v20.979c0,11.675,3.164,24.834,14.051,24.834,8.709,0,17.81-10.193,19.69-12.664a1.274,1.274,0,0,0,.4-.994Z" transform="translate(-349.103 -358.172)" fill="#9d844b"/><path d="M682.3,410.467c0,12.761,1.387,17.412,9.893,17.412,19.4,0,28.8-25.825,28.8-44.822,0-11.575-2.183-15.828-8.613-15.828-1.582,0-3.56.393-5.342.393-3.365,0-5.24-1.88-5.24-4.949,0-3.264,2.671-5.044,5.733-5.044,8.809,0,14.941,8.706,14.941,24.536,0,19.888-8.706,47.693-32.945,47.693-5.444,0-10.19-.5-14.146-4.353-4.36-4.158-4.951-13.853-4.951-21.275v-43.14H666.17v-1.484H682.3Z" transform="translate(-542.896 -357.63)" fill="#9d844b"/><path d="M966.523,419.644c-3.857,5.935-10.879,10.489-22.754,10.489-10.986,0-27.51-6.927-27.51-36.609,0-18.8,8.906-35.523,28.6-35.523,14.443,0,20.576,9.006,20.576,9.006l-1.289.886a23.608,23.608,0,0,0-18.3-8.11c-13.955,0-14.746,12.071-14.746,20.481v10.984h22.559l-.1,1.777H931.1v14.248c0,11.577,2.285,21.077,14.648,21.077,10.2,0,15.83-4.256,19.59-9.6Z" transform="translate(-726.102 -357.902)" fill="#9d844b"/><path d="M1131.778,366.512h-4.258V365.03h16.123v43.042c0,17.017,3.76,25.525,14.551,25.525,7.813,0,13.652-2.573,18.009-7.617l1.279.891s-5.929,8.508-20.079,8.508c-9.4,0-15.439-3.267-19.3-7.622-5.244-5.835-6.328-12.564-6.328-20.576Z" transform="translate(-880.874 -363.052)" fill="#9d844b"/><path d="M1320.828,366.512h-4.248V365.03H1332.7v43.042c0,17.017,3.76,25.525,14.541,25.525,7.822,0,13.662-2.573,18.018-7.617l1.279.891s-5.928,8.508-20.078,8.508c-9.4,0-15.439-3.267-19.307-7.622-5.244-5.835-6.328-12.564-6.328-20.576Z" transform="translate(-1019.372 -363.052)" fill="#9d844b"/><path d="M1563.295,419.644c-3.857,5.935-10.889,10.489-22.755,10.489-10.986,0-27.51-6.927-27.51-36.609,0-18.8,8.906-35.523,28.594-35.523,14.444,0,20.587,9.006,20.587,9.006l-1.3.886a23.588,23.588,0,0,0-18.292-8.11c-13.955,0-14.746,12.071-14.746,20.481v10.984h22.56l-.1,1.777h-22.462v14.248c0,11.577,2.266,21.077,14.648,21.077,10.177,0,15.831-4.256,19.591-9.6Z" transform="translate(-1163.295 -357.902)" fill="#9d844b"/></g><g transform="translate(205.18 330.11)"><g transform="translate(0 0)"><path d="M209.438,338.994H205.18V337.51h16.13v43.04c0,17.019,3.76,25.528,14.544,25.528,7.818,0,13.655-2.573,18.008-7.62l1.287.891s-5.935,8.508-20.086,8.508c-9.4,0-15.437-3.262-19.295-7.617-5.244-5.84-6.331-12.569-6.331-20.581Z" transform="translate(-205.18 -335.532)" fill="#fff"/><path d="M465.161,401.4h-15.83v-11.28c-8.311,8.906-14.151,12.666-21.175,12.666-15.535,0-26.516-14.251-26.516-35.523,0-10.19,1.482-18.8,6.926-25.725a27.493,27.493,0,0,1,22.361-10.686h.989c18.5,0,28.892,14.446,28.892,30.97v38.091h4.353Zm-15.83-43.338c0-14.448-5.442-25.628-17.512-25.628h-.793c-10.684,0-15.83,7.817-15.83,22.559v20.977c0,11.675,3.164,24.834,14.051,24.834,8.709,0,17.81-10.191,19.69-12.664a1.264,1.264,0,0,0,.4-.989Z" transform="translate(-349.103 -330.652)" fill="#fff"/><path d="M682.3,382.948c0,12.764,1.387,17.415,9.893,17.415,19.4,0,28.8-25.823,28.8-44.823,0-11.577-2.183-15.83-8.613-15.83-1.582,0-3.56.4-5.342.4-3.365,0-5.24-1.88-5.24-4.947,0-3.267,2.671-5.049,5.733-5.049,8.809,0,14.941,8.706,14.941,24.541,0,19.888-8.706,47.689-32.945,47.689-5.444,0-10.19-.493-14.146-4.351-4.36-4.158-4.951-13.855-4.951-21.275v-43.14H666.17v-1.482H682.3Z" transform="translate(-542.896 -330.11)" fill="#fff"/><path d="M966.523,392.121c-3.857,5.938-10.879,10.489-22.754,10.489-10.986,0-27.51-6.924-27.51-36.609,0-18.8,8.906-35.521,28.6-35.521,14.443,0,20.576,9,20.576,9l-1.289.889a23.61,23.61,0,0,0-18.3-8.113c-13.955,0-14.746,12.073-14.746,20.484v10.979h22.559l-.1,1.782H931.1v14.248c0,11.577,2.285,21.074,14.648,21.074,10.2,0,15.83-4.255,19.59-9.595Z" transform="translate(-726.102 -330.382)" fill="#fff"/><path d="M1131.778,338.994h-4.258V337.51h16.123v43.04c0,17.019,3.76,25.528,14.551,25.528,7.813,0,13.652-2.573,18.009-7.62l1.279.891s-5.929,8.508-20.079,8.508c-9.4,0-15.439-3.262-19.3-7.617-5.244-5.84-6.328-12.569-6.328-20.581Z" transform="translate(-880.874 -335.532)" fill="#fff"/><path d="M1320.828,338.994h-4.248V337.51H1332.7v43.04c0,17.019,3.76,25.528,14.541,25.528,7.822,0,13.662-2.573,18.018-7.62l1.279.891s-5.928,8.508-20.078,8.508c-9.4,0-15.439-3.262-19.307-7.617-5.244-5.84-6.328-12.569-6.328-20.581Z" transform="translate(-1019.372 -335.532)" fill="#fff"/><path d="M1563.295,392.121c-3.857,5.938-10.889,10.489-22.755,10.489-10.986,0-27.51-6.924-27.51-36.609,0-18.8,8.906-35.521,28.594-35.521,14.444,0,20.587,9,20.587,9l-1.3.889a23.589,23.589,0,0,0-18.292-8.113c-13.955,0-14.746,12.073-14.746,20.484v10.979h22.56l-.1,1.782h-22.462v14.248c0,11.577,2.266,21.074,14.648,21.074,10.177,0,15.831-4.255,19.591-9.595Z" transform="translate(-1163.295 -330.382)" fill="#fff"/></g></g><g transform="translate(231.377 420.876)"><g transform="translate(0 0)"><path d="M303.14,690.9V670.48h1.416v19.009h11.465V690.9Z" transform="translate(-303.14 -670.224)" fill="#9d844b"/><path d="M370.559,685.024,368.14,690.2h-1.57l9.612-20.665,9.08,20.665h-1.543l-2.29-5.181Zm5.562-12-4.9,10.582H380.8Z" transform="translate(-349.608 -669.54)" fill="#9d844b"/><path d="M462.918,682.3a4.408,4.408,0,0,1,.806,2.534,4.521,4.521,0,0,1-.571,2.207,5.36,5.36,0,0,1-1.636,1.841,8.552,8.552,0,0,1-5.118,1.572,9.316,9.316,0,0,1-2.769-.415,7.958,7.958,0,0,1-2.354-1.157,5.213,5.213,0,0,1-2.168-3.237l1.348-.757a3.554,3.554,0,0,0,1.7,2.827,5.822,5.822,0,0,0,1.914.957,8.056,8.056,0,0,0,2.324.332,6.9,6.9,0,0,0,4.244-1.289,3.546,3.546,0,0,0,1.665-2.891,3,3,0,0,0-.615-1.821,4.993,4.993,0,0,0-1.709-1.445,12.237,12.237,0,0,0-3.707-.85c-.146-.02-.679-.1-1.582-.249a8.52,8.52,0,0,1-2.344-.693,6.2,6.2,0,0,1-2.417-1.992,4.552,4.552,0,0,1-.879-2.686,4.314,4.314,0,0,1,.576-2.178,5.765,5.765,0,0,1,1.65-1.807,7.861,7.861,0,0,1,2.354-1.167,9.474,9.474,0,0,1,2.769-.41,8.523,8.523,0,0,1,5.118,1.577,5.134,5.134,0,0,1,2.144,3.2l-1.353.752a3.244,3.244,0,0,0-.454-1.509,4.639,4.639,0,0,0-1.211-1.318,6.265,6.265,0,0,0-1.948-.962,8.128,8.128,0,0,0-2.3-.327,8.327,8.327,0,0,0-2.31.327,5.884,5.884,0,0,0-1.934.962,4.565,4.565,0,0,0-1.25,1.328,2.906,2.906,0,0,0-.439,1.529,3.2,3.2,0,0,0,.723,1.934,4.951,4.951,0,0,0,1.792,1.489,5.769,5.769,0,0,0,1.455.459c.537.093,1.221.2,2.061.3.146.02.513.073,1.1.156a14.257,14.257,0,0,1,1.695.342,6.136,6.136,0,0,1,1.382.537A6.607,6.607,0,0,1,462.918,682.3Z" transform="translate(-410.03 -669.53)" fill="#9d844b"/><path d="M523.77,690.9V670.48H537v1.44H525.186v8.047h9.2v1.445h-9.2v8.008H537V690.9Z" transform="translate(-464.773 -670.224)" fill="#9d844b"/><path d="M605.391,690.905,596.9,680.6h2.515a10.023,10.023,0,0,0,3.765-.591,4.988,4.988,0,0,0,1.855-1.528,3.6,3.6,0,0,0,.781-2.246,3.709,3.709,0,0,0-.649-2.085,4.833,4.833,0,0,0-1.89-1.621,6.11,6.11,0,0,0-2.832-.625h-5.718v19H593.32V670.49h7.139a7.868,7.868,0,0,1,2.7.454,6.634,6.634,0,0,1,2.207,1.309,5.92,5.92,0,0,1,1.4,1.851,5.038,5.038,0,0,1-.552,5.229,5.973,5.973,0,0,1-2.451,1.963,6.531,6.531,0,0,1-1.9.552,16.71,16.71,0,0,1-1.958.1l7.378,8.955Z" transform="translate(-515.719 -670.234)" fill="#9d844b"/></g><g transform="translate(105.622 0.003)"><path d="M702.1,685.024l-2.417,5.181H698.11l9.609-20.665L716.8,690.2h-1.533l-2.295-5.181Zm5.562-12-4.9,10.582h9.585Z" transform="translate(-698.11 -669.54)" fill="#9d844b"/><path d="M786.1,673.622V690.2H784.69V669.54l14.136,16.9V669.789h1.411v20.762Z" transform="translate(-761.539 -669.54)" fill="#9d844b"/><path d="M871.279,690.9H865.4V670.48h5.879a10,10,0,0,1,4.014.8,9.277,9.277,0,0,1,3.213,2.28,9.984,9.984,0,0,1,1.973,3.237,11.118,11.118,0,0,1,0,7.729,10.307,10.307,0,0,1-1.973,3.262,9.118,9.118,0,0,1-3.213,2.314A10,10,0,0,1,871.279,690.9Zm-4.463-1.406h4.463a7.913,7.913,0,0,0,6.191-2.676,8.249,8.249,0,0,0,1.68-2.773,10.11,10.11,0,0,0,0-6.729,8.319,8.319,0,0,0-1.68-2.778,8.094,8.094,0,0,0-6.191-2.612h-4.463Z" transform="translate(-820.667 -670.23)" fill="#9d844b"/></g><g transform="translate(178.319 0)"><path d="M983.827,682.3a4.392,4.392,0,0,1,.791,2.534,4.614,4.614,0,0,1-.557,2.207,5.552,5.552,0,0,1-1.631,1.841,8.591,8.591,0,0,1-5.127,1.572,9.236,9.236,0,0,1-2.764-.415,7.9,7.9,0,0,1-2.354-1.157,5.155,5.155,0,0,1-2.168-3.237l1.348-.757a3.53,3.53,0,0,0,1.7,2.827,5.775,5.775,0,0,0,1.914.957,8.031,8.031,0,0,0,2.324.332,6.945,6.945,0,0,0,4.248-1.289,3.552,3.552,0,0,0,1.66-2.891,3.033,3.033,0,0,0-.615-1.821,5.039,5.039,0,0,0-1.709-1.445,12.271,12.271,0,0,0-3.7-.85c-.146-.02-.684-.1-1.592-.249a8.447,8.447,0,0,1-2.334-.693,6.146,6.146,0,0,1-2.422-1.992,4.552,4.552,0,0,1-.879-2.686,4.266,4.266,0,0,1,.576-2.178,5.765,5.765,0,0,1,1.65-1.807,7.8,7.8,0,0,1,2.354-1.167,9.441,9.441,0,0,1,2.764-.41,8.561,8.561,0,0,1,5.127,1.577,5.089,5.089,0,0,1,2.129,3.2l-1.348.752a3.181,3.181,0,0,0-.449-1.509,4.786,4.786,0,0,0-1.211-1.318,6.186,6.186,0,0,0-1.953-.962,8.079,8.079,0,0,0-2.285-.327,8.284,8.284,0,0,0-2.314.327,5.884,5.884,0,0,0-1.934.962,4.632,4.632,0,0,0-1.25,1.328,2.952,2.952,0,0,0-.439,1.529,3.216,3.216,0,0,0,.713,1.934,5.092,5.092,0,0,0,1.8,1.489,5.832,5.832,0,0,0,1.455.459c.537.093,1.23.2,2.061.3.146.02.518.073,1.1.156a14.167,14.167,0,0,1,1.689.342,6.182,6.182,0,0,1,1.387.537A6.653,6.653,0,0,1,983.827,682.3Z" transform="translate(-969.96 -669.53)" fill="#9d844b"/><path d="M1060.49,690.9h-1.885l-7.314-8.7-6.611,9.048V670.48h1.426v16.372L1058,670.48h1.8l-7.666,10.493Z" transform="translate(-1024.697 -670.224)" fill="#9d844b"/><path d="M1122.33,690.9V670.48h1.416V690.9Z" transform="translate(-1081.583 -670.224)" fill="#9d844b"/><path d="M1153.1,673.622V690.2h-1.406V669.54l14.131,16.9V669.789h1.406v20.762Z" transform="translate(-1103.094 -669.54)" fill="#9d844b"/></g><g transform="translate(255.426 0.73)"><path d="M1268.642,693.154a9.93,9.93,0,0,1-5.186-1.416,10.6,10.6,0,0,1-3.779-3.814,10.453,10.453,0,0,1-1.377-5.234,10.323,10.323,0,0,1,1.377-5.21,10.569,10.569,0,0,1,3.779-3.8,9.93,9.93,0,0,1,5.186-1.416,10.061,10.061,0,0,1,4.16.9,10.741,10.741,0,0,1,3.507,2.529l-1.1.967a9.079,9.079,0,0,0-2.959-2.2,8.792,8.792,0,0,0-8.076.43,9.044,9.044,0,0,0-3.242,3.281,9.056,9.056,0,0,0,0,9.048,9.083,9.083,0,0,0,3.242,3.282,8.8,8.8,0,0,0,8.291.332,9.162,9.162,0,0,0,3.1-2.457l1.133.889a10.566,10.566,0,0,1-3.575,2.872A10.266,10.266,0,0,1,1268.642,693.154Z" transform="translate(-1258.3 -672.26)" fill="#9d844b"/><path d="M1344.181,693.625V673.2h1.416v19.009h11.475v1.416Z" transform="translate(-1321.219 -672.949)" fill="#9d844b"/><path d="M1413.851,693.625V673.2h1.406v20.425Z" transform="translate(-1372.249 -672.949)" fill="#9d844b"/><path d="M1444.626,676.342v16.592h-1.416V672.26l14.142,16.9v-16.65h1.406v20.762Z" transform="translate(-1393.759 -672.26)" fill="#9d844b"/><path d="M1525.34,693.625V673.2h1.416v20.425Z" transform="translate(-1453.928 -672.949)" fill="#9d844b"/><path d="M1560.112,693.154a9.989,9.989,0,0,1-5.2-1.416,10.57,10.57,0,0,1-3.77-3.814,10.353,10.353,0,0,1-1.377-5.234,10.226,10.226,0,0,1,1.377-5.21,10.542,10.542,0,0,1,3.77-3.8,9.989,9.989,0,0,1,5.2-1.416,10.094,10.094,0,0,1,4.16.9,10.727,10.727,0,0,1,3.506,2.529l-1.1.967a9.015,9.015,0,0,0-2.969-2.2,8.733,8.733,0,0,0-8.047.43,8.946,8.946,0,0,0-3.262,3.281,9.056,9.056,0,0,0,0,9.048,8.984,8.984,0,0,0,3.262,3.282,8.543,8.543,0,0,0,4.453,1.211,8.649,8.649,0,0,0,3.818-.879,9.021,9.021,0,0,0,3.086-2.457l1.143.889a10.446,10.446,0,0,1-3.594,2.872A10.089,10.089,0,0,1,1560.112,693.154Z" transform="translate(-1471.828 -672.26)" fill="#9d844b"/></g></g></g></svg>