<svg xmlns="http://www.w3.org/2000/svg" width="168.628" height="44.328" viewBox="0 0 168.628 44.328"><g transform="translate(-205.18 -337.467)"><g transform="translate(205.18 337.467)"><path d="M206.975,365.655h-1.8v-.625h6.8v18.145c0,7.174,1.585,10.76,6.131,10.76a9.417,9.417,0,0,0,7.592-3.211l.543.376s-2.5,3.587-8.468,3.587c-3.963,0-6.508-1.377-8.134-3.213-2.211-2.46-2.669-5.3-2.669-8.674Z" transform="translate(-205.18 -364.196)" fill="#9d844b"/><path d="M428.419,388.106h-6.673v-4.755c-3.5,3.752-5.966,5.339-8.927,5.339-6.549,0-11.178-6.006-11.178-14.973,0-4.3.625-7.925,2.92-10.846a11.589,11.589,0,0,1,9.427-4.5h.417c7.8,0,12.18,6.089,12.18,13.056V387.48h1.835Zm-6.673-18.269c0-6.091-2.294-10.8-7.382-10.8h-.334c-4.5,0-6.673,3.3-6.673,9.51v8.844c0,4.922,1.334,10.469,5.923,10.469,3.672,0,7.508-4.3,8.3-5.339a.537.537,0,0,0,.169-.419Z" transform="translate(-379.492 -358.282)" fill="#9d844b"/><path d="M672.97,379.9c0,5.38.585,7.34,4.171,7.34,8.178,0,12.141-10.887,12.141-18.9,0-4.88-.92-6.673-3.631-6.673-.667,0-1.5.166-2.252.166a1.965,1.965,0,0,1-2.209-2.086,2.185,2.185,0,0,1,2.417-2.126c3.714,0,6.3,3.67,6.3,10.344,0,8.384-3.67,20.106-13.889,20.106-2.295,0-4.3-.211-5.964-1.835-1.838-1.753-2.087-5.84-2.087-8.969V359.088h-1.8v-.626h6.8Z" transform="translate(-614.202 -357.629)" fill="#9d844b"/><path d="M937.448,383.988c-1.626,2.5-4.586,4.422-9.592,4.422-4.632,0-11.6-2.92-11.6-15.433,0-7.925,3.754-14.975,12.057-14.975,6.089,0,8.674,3.8,8.674,3.8l-.543.373a9.952,9.952,0,0,0-7.715-3.419c-5.883,0-6.217,5.089-6.217,8.634v4.631h9.51l-.042.749h-9.468v6.006c0,4.88.963,8.885,6.175,8.885,4.3,0,6.674-1.794,8.259-4.047Z" transform="translate(-836.095 -357.959)" fill="#9d844b"/><path d="M1129.315,365.655h-1.8v-.625h6.8v18.145c0,7.174,1.585,10.76,6.134,10.76a9.424,9.424,0,0,0,7.592-3.211l.539.376s-2.5,3.587-8.465,3.587c-3.963,0-6.509-1.377-8.136-3.213-2.211-2.46-2.668-5.3-2.668-8.674Z" transform="translate(-1023.542 -364.196)" fill="#9d844b"/><path d="M1318.371,365.655h-1.791v-.625h6.8v18.145c0,7.174,1.585,10.76,6.13,10.76a9.424,9.424,0,0,0,7.6-3.211l.54.376s-2.5,3.587-8.464,3.587c-3.963,0-6.509-1.377-8.139-3.213-2.21-2.46-2.667-5.3-2.667-8.674Z" transform="translate(-1191.286 -364.196)" fill="#9d844b"/><path d="M1534.22,383.988c-1.626,2.5-4.591,4.422-9.593,4.422-4.631,0-11.6-2.92-11.6-15.433,0-7.925,3.754-14.975,12.054-14.975,6.089,0,8.679,3.8,8.679,3.8l-.548.373a9.944,9.944,0,0,0-7.711-3.419c-5.883,0-6.217,5.089-6.217,8.634v4.631h9.511l-.042.749h-9.469v6.006c0,4.88.955,8.885,6.175,8.885,4.291,0,6.674-1.794,8.259-4.047Z" transform="translate(-1365.593 -357.959)" fill="#9d844b"/></g><g transform="translate(216.224 372.627)"><g transform="translate(0 0)"><path d="M303.14,679.089V670.48h.6v8.014h4.833v.595Z" transform="translate(-303.14 -670.369)" fill="#9d844b"/><path d="M368.252,676.065l-1.02,2.182h-.662l4.052-8.712,3.828,8.712H373.8l-.965-2.184Zm2.345-5.059-2.066,4.461h4.038Z" transform="translate(-359.419 -669.535)" fill="#9d844b"/><path d="M454.9,674.91a1.857,1.857,0,0,1,.34,1.068,1.905,1.905,0,0,1-.241.931,2.258,2.258,0,0,1-.69.776,3.605,3.605,0,0,1-2.158.663,3.925,3.925,0,0,1-1.167-.175,3.36,3.36,0,0,1-.992-.488,2.2,2.2,0,0,1-.914-1.365l.568-.319a1.5,1.5,0,0,0,.717,1.192,2.454,2.454,0,0,0,.807.4,3.4,3.4,0,0,0,.98.14,2.909,2.909,0,0,0,1.789-.543,1.5,1.5,0,0,0,.7-1.219,1.265,1.265,0,0,0-.259-.768,2.105,2.105,0,0,0-.72-.609,5.164,5.164,0,0,0-1.563-.358c-.062-.008-.286-.042-.667-.1a3.6,3.6,0,0,1-.988-.292,2.614,2.614,0,0,1-1.019-.84,1.919,1.919,0,0,1-.37-1.132,1.818,1.818,0,0,1,.243-.918,2.428,2.428,0,0,1,.7-.762,3.312,3.312,0,0,1,.992-.492,3.989,3.989,0,0,1,1.167-.173,3.6,3.6,0,0,1,2.158.665,2.163,2.163,0,0,1,.9,1.349l-.57.317a1.365,1.365,0,0,0-.191-.636,1.956,1.956,0,0,0-.51-.556,2.64,2.64,0,0,0-.821-.406,3.421,3.421,0,0,0-.97-.138,3.5,3.5,0,0,0-.973.138,2.478,2.478,0,0,0-.816.406,1.926,1.926,0,0,0-.527.56,1.226,1.226,0,0,0-.185.645,1.35,1.35,0,0,0,.3.815,2.087,2.087,0,0,0,.755.628,2.431,2.431,0,0,0,.613.193c.226.039.515.084.869.126l.464.066a5.987,5.987,0,0,1,.715.144,2.587,2.587,0,0,1,.583.226A2.783,2.783,0,0,1,454.9,674.91Z" transform="translate(-432.6 -669.524)" fill="#9d844b"/><path d="M523.77,679.089V670.48h5.578v.607h-4.981v3.392h3.879v.609h-3.879v3.376h4.981v.624Z" transform="translate(-498.899 -670.369)" fill="#9d844b"/><path d="M598.409,679.1l-3.579-4.344h1.06a4.224,4.224,0,0,0,1.587-.249,2.1,2.1,0,0,0,.782-.644,1.516,1.516,0,0,0,.329-.947,1.562,1.562,0,0,0-.274-.879,2.036,2.036,0,0,0-.8-.683,2.573,2.573,0,0,0-1.194-.264h-2.41v8.01h-.593V670.49h3.01a3.317,3.317,0,0,1,1.138.191,2.8,2.8,0,0,1,.93.552,2.5,2.5,0,0,1,.59.78,2.124,2.124,0,0,1-.233,2.2,2.517,2.517,0,0,1-1.033.828,2.747,2.747,0,0,1-.8.233,7.062,7.062,0,0,1-.825.042l3.11,3.775Z" transform="translate(-560.606 -670.38)" fill="#9d844b"/></g><g transform="translate(44.527 0.004)"><path d="M699.792,676.068l-1.019,2.184h-.663l4.051-8.712,3.828,8.71h-.646l-.967-2.184Zm2.345-5.059-2.066,4.461h4.041Z" transform="translate(-698.11 -669.54)" fill="#9d844b"/><path d="M785.285,671.261v6.989h-.595v-8.71l5.959,7.125v-7.02h.595V678.4Z" transform="translate(-774.93 -669.54)" fill="#9d844b"/><path d="M867.879,679.088H865.4V670.48h2.479a4.215,4.215,0,0,1,1.692.337,3.91,3.91,0,0,1,1.354.961,4.213,4.213,0,0,1,.832,1.365,4.687,4.687,0,0,1,0,3.258,4.348,4.348,0,0,1-.832,1.375,3.843,3.843,0,0,1-1.354.975A4.215,4.215,0,0,1,867.879,679.088ZM866,678.5h1.882a3.336,3.336,0,0,0,2.61-1.128,3.481,3.481,0,0,0,.708-1.169,4.261,4.261,0,0,0,0-2.837,3.508,3.508,0,0,0-.708-1.171,3.412,3.412,0,0,0-2.61-1.1H866Z" transform="translate(-846.542 -670.374)" fill="#9d844b"/></g><g transform="translate(75.174 0)"><path d="M975.806,674.91a1.85,1.85,0,0,1,.333,1.068,1.946,1.946,0,0,1-.235.93,2.34,2.34,0,0,1-.687.776,3.621,3.621,0,0,1-2.161.663,3.892,3.892,0,0,1-1.165-.175,3.326,3.326,0,0,1-.992-.488,2.172,2.172,0,0,1-.914-1.365l.568-.319a1.489,1.489,0,0,0,.717,1.192,2.438,2.438,0,0,0,.807.4,3.391,3.391,0,0,0,.98.14,2.927,2.927,0,0,0,1.791-.543,1.5,1.5,0,0,0,.7-1.219,1.277,1.277,0,0,0-.259-.768,2.121,2.121,0,0,0-.72-.609,5.177,5.177,0,0,0-1.56-.358c-.062-.008-.288-.042-.671-.1a3.566,3.566,0,0,1-.984-.292,2.592,2.592,0,0,1-1.021-.84,1.917,1.917,0,0,1-.37-1.132,1.8,1.8,0,0,1,.243-.918,2.434,2.434,0,0,1,.7-.762,3.289,3.289,0,0,1,.992-.492,3.975,3.975,0,0,1,1.165-.173,3.61,3.61,0,0,1,2.161.665,2.146,2.146,0,0,1,.9,1.349l-.568.317a1.337,1.337,0,0,0-.189-.636,2.013,2.013,0,0,0-.51-.556,2.61,2.61,0,0,0-.823-.406,3.4,3.4,0,0,0-.963-.138,3.494,3.494,0,0,0-.976.138,2.481,2.481,0,0,0-.815.406,1.954,1.954,0,0,0-.527.56,1.247,1.247,0,0,0-.185.645,1.356,1.356,0,0,0,.3.815,2.145,2.145,0,0,0,.759.628,2.449,2.449,0,0,0,.613.193c.226.039.519.084.869.127l.464.066a5.992,5.992,0,0,1,.712.144,2.612,2.612,0,0,1,.585.226A2.8,2.8,0,0,1,975.806,674.91Z" transform="translate(-969.96 -669.524)" fill="#9d844b"/><path d="M1051.345,679.089h-.795l-3.083-3.668-2.787,3.814V670.48h.6v6.9l5.014-6.9h.759l-3.232,4.424Z" transform="translate(-1036.256 -670.369)" fill="#9d844b"/><path d="M1122.33,679.089V670.48h.6v8.609Z" transform="translate(-1105.152 -670.369)" fill="#9d844b"/><path d="M1152.287,671.261v6.989h-.593v-8.71l5.957,7.125v-7.02h.593V678.4Z" transform="translate(-1131.206 -669.537)" fill="#9d844b"/></g><g transform="translate(107.68 0.31)"><path d="M1262.66,681.07a4.187,4.187,0,0,1-2.187-.6,4.47,4.47,0,0,1-1.593-1.608,4.4,4.4,0,0,1-.58-2.207,4.351,4.351,0,0,1,.58-2.2,4.455,4.455,0,0,1,1.593-1.6,4.187,4.187,0,0,1,2.187-.6,4.243,4.243,0,0,1,1.754.38,4.528,4.528,0,0,1,1.478,1.066l-.463.408a3.83,3.83,0,0,0-1.248-.928,3.707,3.707,0,0,0-3.4.181,3.824,3.824,0,0,0,0,6.581,3.71,3.71,0,0,0,3.5.14,3.866,3.866,0,0,0,1.307-1.036l.478.375a4.457,4.457,0,0,1-1.507,1.211A4.328,4.328,0,0,1,1262.66,681.07Z" transform="translate(-1258.3 -672.262)" fill="#9d844b"/><path d="M1344.181,681.811V673.2h.6v8.014h4.837v.6Z" transform="translate(-1334.501 -673.094)" fill="#9d844b"/><path d="M1413.851,681.811V673.2h.593v8.611Z" transform="translate(-1396.313 -673.094)" fill="#9d844b"/><path d="M1443.807,673.981v6.995h-.6V672.26l5.962,7.125v-7.019h.593v8.753Z" transform="translate(-1422.363 -672.26)" fill="#9d844b"/><path d="M1525.34,681.811V673.2h.6v8.611Z" transform="translate(-1495.235 -673.094)" fill="#9d844b"/><path d="M1554.127,681.07a4.21,4.21,0,0,1-2.192-.6,4.452,4.452,0,0,1-1.589-1.608,4.363,4.363,0,0,1-.58-2.206,4.308,4.308,0,0,1,.58-2.2,4.444,4.444,0,0,1,1.589-1.6,4.288,4.288,0,0,1,3.946-.218,4.522,4.522,0,0,1,1.478,1.066l-.464.408a3.8,3.8,0,0,0-1.251-.927,3.682,3.682,0,0,0-3.392.181,3.772,3.772,0,0,0-1.375,1.383,3.813,3.813,0,0,0,1.375,5.2,3.6,3.6,0,0,0,1.877.51,3.648,3.648,0,0,0,1.61-.371,3.806,3.806,0,0,0,1.3-1.036l.482.375a4.4,4.4,0,0,1-1.515,1.211A4.254,4.254,0,0,1,1554.127,681.07Z" transform="translate(-1516.909 -672.262)" fill="#9d844b"/></g></g></g></svg>